<?xml version="1.0" encoding="UTF-8"?>
<svg width="100" height="100" viewBox="0 0 100 100" xmlns="http://www.w3.org/2000/svg">
  <!-- 精英史莱姆主体 - 半圆形形状 -->
  <path d="M10,60 Q50,100 90,60 Q90,20 50,20 Q10,20 10,60 Z" fill="#9b59b6" stroke="#8e44ad" stroke-width="2"/>
  
  <!-- 精英史莱姆顶部的凸起 -->
  <ellipse cx="50" cy="20" rx="10" ry="12" fill="#9b59b6" stroke="#8e44ad" stroke-width="2"/>
  
  <!-- 精英史莱姆小泡泡装饰 -->
  <circle cx="25" cy="40" r="8" fill="#d6a2e8" opacity="0.7"/>
  <circle cx="75" cy="45" r="6" fill="#d6a2e8" opacity="0.7"/>
  <circle cx="60" cy="35" r="5" fill="#d6a2e8" opacity="0.7"/>
  
  <!-- 精英史莱姆的眼睛 - 更具威胁性 -->
  <circle cx="35" cy="45" r="7" fill="white" stroke="#2d3436" stroke-width="1"/>
  <circle cx="65" cy="45" r="7" fill="white" stroke="#2d3436" stroke-width="1"/>
  <circle cx="35" cy="45" r="3" fill="#e74c3c"/>
  <circle cx="65" cy="45" r="3" fill="#e74c3c"/>
  
  <!-- 精英史莱姆的嘴 - 锯齿状 -->
  <path d="M35,60 L40,63 L45,60 L50,63 L55,60 L60,63 L65,60" fill="none" stroke="#2d3436" stroke-width="2" stroke-linecap="round"/>
  
  <!-- 精英史莱姆的皇冠 -->
  <path d="M40,25 L50,15 L60,25 L55,30 L50,25 L45,30 L40,25" fill="#f1c40f" stroke="#e67e22" stroke-width="1"/>
  
  <!-- 精英史莱姆的能量光环 -->
  <circle cx="50" cy="50" r="45" fill="none" stroke="#8e44ad" stroke-width="2" stroke-dasharray="5,3" opacity="0.5"/>
</svg> 